<svg xmlns="http://www.w3.org/2000/svg" viewBox="0 0 14.17 11.33"><path d="M0 11V.25h1.39a5.1 5.1 0 0 1 1.24.14 2.17 2.17 0 0 1 .91.49 2 2 0 0 1 .54.87 4.34 4.34 0 0 1 .19 1.35 4.61 4.61 0 0 1 0 .68 2 2 0 0 1-.16.56 2 2 0 0 1-.31.5 3.4 3.4 0 0 1-.46.48 1.75 1.75 0 0 1 .54.52 3.53 3.53 0 0 1 .38.8A4.36 4.36 0 0 1 4.38 8a5.78 5.78 0 0 1-.11 1.13 2.7 2.7 0 0 1-.4.95 2 2 0 0 1-.75.67 2.37 2.37 0 0 1-1.18.25zm2.75-7.75a2.08 2.08 0 0 0-.14-.85 1.1 1.1 0 0 0-.34-.4.88.88 0 0 0-.39-.14h-.3v2.82h.3a.79.79 0 0 0 .39-.15 1.14 1.14 0 0 0 .34-.42 2.11 2.11 0 0 0 .14-.86zm0 4.52a2.84 2.84 0 0 0-.14-1 1.2 1.2 0 0 0-.34-.49.62.62 0 0 0-.39-.14h-.3v3.27h.3a.64.64 0 0 0 .39-.15 1.2 1.2 0 0 0 .34-.49 2.84 2.84 0 0 0 .14-1z" fill="#dba3b1"/><path d="M8.71 10.13a2.92 2.92 0 0 1-.29.48A2.79 2.79 0 0 1 8 11a1.66 1.66 0 0 1-.45.25 1.32 1.32 0 0 1-.48.09 1.16 1.16 0 0 1-.78-.27 2 2 0 0 1-.54-.73 4.18 4.18 0 0 1-.34-1.05A12.52 12.52 0 0 1 5.26 8c0-.44-.07-.89-.08-1.34V5.37c0-.77 0-1.45.07-2a13.66 13.66 0 0 1 .19-1.45 4.26 4.26 0 0 1 .27-1A2.35 2.35 0 0 1 6 .36a1 1 0 0 1 .37-.28.93.93 0 0 1 .35-.08.82.82 0 0 1 .5.17 1.32 1.32 0 0 1 .36.46 2.66 2.66 0 0 1 .22.72 5.29 5.29 0 0 1 .07.92 8.09 8.09 0 0 1-.17 1.67 13.48 13.48 0 0 1-.45 1.71c-.18.57-.38 1.13-.61 1.68S6.19 8.4 6 8.89a5.25 5.25 0 0 0 .14.71 2.42 2.42 0 0 0 .23.59 1.27 1.27 0 0 0 .34.41.67.67 0 0 0 .45.16.85.85 0 0 0 .48-.15 1.41 1.41 0 0 0 .36-.38 1.93 1.93 0 0 0 .26-.54 1.87 1.87 0 0 0 .1-.62 3 3 0 0 0 0-.42 2 2 0 0 0-.13-.39A.84.84 0 0 0 8 8a.47.47 0 0 0-.31-.11.33.33 0 0 0-.21.06.45.45 0 0 0-.11.13.39.39 0 0 0 0 .14v.08a.52.52 0 0 0 0 .21.46.46 0 0 0 .18.19.31.31 0 0 1 0 .45.28.28 0 0 1-.19.07.42.42 0 0 1-.27-.09.64.64 0 0 1-.2-.23 1.08 1.08 0 0 1-.13-.29 1.13 1.13 0 0 1 0-.3 1.05 1.05 0 0 1 .07-.4A1 1 0 0 1 7 7.59a1.21 1.21 0 0 1 .3-.2.86.86 0 0 1 .36-.07 1 1 0 0 1 .56.15 1.15 1.15 0 0 1 .39.4 1.67 1.67 0 0 1 .24.56 2.79 2.79 0 0 1 .07.64v.37a3.88 3.88 0 0 1-.21.69zm-2.88-2.2l.52-1.33c.18-.46.33-.94.47-1.42a14.76 14.76 0 0 0 .35-1.46 8.06 8.06 0 0 0 .13-1.45V1.7a3 3 0 0 0-.1-.55A1.19 1.19 0 0 0 7 .74a.36.36 0 0 0-.3-.17.28.28 0 0 0-.15.08.84.84 0 0 0-.2.28 3.2 3.2 0 0 0-.21.55 7.85 7.85 0 0 0-.2.9 22.64 22.64 0 0 0-.2 3.12v1.98c0 .18.08.33.09.45z" fill="#010101"/><path d="M9.79 11V.25h1.39a5.1 5.1 0 0 1 1.24.14 2.17 2.17 0 0 1 .91.49 2 2 0 0 1 .54.87 4.07 4.07 0 0 1 .19 1.35 4.61 4.61 0 0 1-.05.68 2 2 0 0 1-.16.56 2.29 2.29 0 0 1-.3.5 4.21 4.21 0 0 1-.47.48 1.75 1.75 0 0 1 .54.52 3.53 3.53 0 0 1 .38.8A4.36 4.36 0 0 1 14.17 8a5.78 5.78 0 0 1-.11 1.13 2.7 2.7 0 0 1-.4.95 2 2 0 0 1-.75.67 2.37 2.37 0 0 1-1.18.26zm2.75-7.72a2.08 2.08 0 0 0-.14-.85 1 1 0 0 0-.34-.43.88.88 0 0 0-.39-.14h-.3v2.82h.3a.79.79 0 0 0 .39-.15 1 1 0 0 0 .34-.42 2.11 2.11 0 0 0 .14-.86zm0 4.52a2.84 2.84 0 0 0-.14-1 1.12 1.12 0 0 0-.34-.49.62.62 0 0 0-.39-.14h-.3v3.24h.3a.64.64 0 0 0 .39-.15 1.12 1.12 0 0 0 .34-.49 2.84 2.84 0 0 0 .14-1z" fill="#dba3b1"/></svg>