<svg version="1" xmlns="http://www.w3.org/2000/svg" width="1194.667" height="1194.667" viewBox="0 0 896.000000 896.000000"><path d="M417 90.7c-10.9 1.9-23.9 8.6-31.7 16.1-6.8 6.6-10.6 11.9-15.4 21.7-1.9 3.8-3.6 7.2-3.9 7.5-1.4 1.3-13.2 34.7-15.9 45-1.8 7-4.1 17.6-4.6 21-1.1 7-1.5 9.8-2 12-.3 1.4-.7 3.8-1 5.5-.3 1.6-.8 4.3-1.1 6-.3 1.6-.7 4.6-.9 6.5-.3 1.9-.7 4.8-1.1 6.5-.4 1.6-.8 4.4-1 6.2-.1 1.7-.6 5.1-.9 7.5-.4 2.4-.9 5.6-1 7.3-.2 1.6-.6 4.8-.9 7-.3 2.2-.8 6.5-1.1 9.5-.3 3-.8 7.1-1 9-.3 1.9-.7 6.9-1 11-.2 4.1-.7 8.6-.9 10-1.2 6.3-2.5 26.7-3.1 46.3-.2 8.7-.6 16.1-.8 16.5-.5 1.2 0 152.3.6 160.2.3 4.1.9 10.9 1.2 15 .3 4.1.8 9.7 1.1 12.5.7 6.2 1.2 14.9 1.9 33.1.2 7.8.7 16.4 1 19 .3 2.7.8 7.6 1.1 10.9.9 11.2 1.2 14 1.8 17.5.3 1.9.8 5.7 1.1 8.5 1.1 10.3 1.6 14.1 2.5 18.5.5 2.5 1.1 6.3 1.4 8.5 1.4 11.4 4.7 24.5 11.1 44 4.7 14.2 15.1 36.4 21.8 46.4 11.5 17.1 26.4 30.9 39.7 36.9 12 5.4 18 6.4 34.2 5.9 8.4-.2 16.2-.7 17.3-1 18.9-5.4 32.2-12.4 47-24.8 4.8-4.1 18.2-17.3 21.2-21.1 4.9-6 17.8-28.8 18.9-33.3.2-.6 1.5-4.4 3-8.5 2.3-6.4 3.6-10.7 7-23.5.3-1.1.7-4.3.9-7 .2-2.8.5-5.2.6-5.5.2-.9 0-14-.5-26.5-.3-10.5-.9-15.8-3.1-26.8-.3-1.5-.7-3.9-1-5.5-1.6-8-10.9-30.4-13.4-32.2-.4-.3-1-1.2-1.3-2-.9-2.6-9.4-13.3-13.5-17.1-7.9-7.3-21.7-15-29.5-16.4-15.3-2.8-27.1-2.5-35.5 1-2.1.9-3.9 1.6-4.1 1.5-.1-.1-2.3.9-4.8 2.1-5.4 2.7-15.3 10.6-16.8 13.4-.6 1.1-1.4 2.2-1.7 2.5-2.3 1.8-8.7 18.5-10.5 27-1.2 6.2-1.9 27.5-1 31.5 3.3 14.3 15.7 32 25.5 36.3 4.9 2.1 5.8 2.3 11.6 2.6 10.5.6 18.7-7.5 18.7-18.3-.1-6.9-2.4-11.2-8.7-16.3-8-6.5-9.1-9.4-8.8-22.5.1-5.9.3-11.7.3-12.9 0-3.1 5-9 9.6-11.3 4.2-2.1 16.4-3.4 16.4-1.8 0 .5.4.5 1 .2 1.9-1.2 12.3 5 18.3 11.1 7.8 7.8 12.7 17.3 16.6 32.4 1.4 5.7.5 44.4-1.3 53.5-2.6 13.3-12 37.9-16.4 42.7-.8 1-1.1 1.8-.6 1.8.5 0 .4.4-.2.8-.6.4-3 3.5-5.3 7-7.7 11.5-18.9 21.4-29.2 26.1-8.6 3.8-14.4 4.9-24.8 4.7-7.9-.2-9.6-.7-16.4-4-13.4-6.6-26.1-20.9-34.5-38.6-3.2-6.8-8.8-21.4-9.7-25.3-.2-1.2-1.2-4.9-2-8.2-1.7-6.3-2.2-8.5-2.9-12.3-.3-1.3-.7-3.1-1-4-.3-.9-.7-3.3-1-5.2-.3-1.9-.7-4.4-1-5.5-.2-1.1-.7-4-1-6.5-.4-2.5-.8-5.4-1-6.5-.2-1.1.4-3.6 1.2-5.5 1.7-4.1 2.3-5.6 5.3-13 1.2-3 2.8-6.9 3.5-8.7.8-1.7 1.4-3.4 1.4-3.7 0-.3 1.1-3 2.5-6s2.5-6.1 2.5-6.8c0-.8.6-2.2 1.4-3.3.7-1.1 1.7-3.1 2.1-4.5.4-1.4 1.9-5 3.2-8 4.6-10.3 5.3-12.1 5.3-13.4 0-.8.7-1.9 1.5-2.6.8-.7 1.5-1.9 1.5-2.7 0-.8.8-3.3 1.9-5.6 1-2.3 2.9-6.7 4.1-9.7 1.2-3 2.8-6.9 3.5-8.5.7-1.7 2.3-5.5 3.5-8.5l4-10c2.6-6.1 6.1-15.3 10.9-29 2.3-6.3 4.6-12.4 5.1-13.5 1.1-2.4 4-11.6 4.1-13 0-.6.4-1.5.9-2 .6-.8 2.2-5.4 3.6-10.8.1-.4.3-.9.4-1.2.1-.3.4-1 .5-1.5.1-.6.4-1.2.5-1.5.1-.3.3-.8.5-1.3.1-.4.4-1.4.8-2.2.3-.8 1.8-5.6 3.3-10.5 1.5-5 3-9.5 3.3-10 .3-.6.6-1.2.7-1.5.3-1.8 1.7-6.7 2.1-8 .4-.8.7-1.8.8-2.3.2-.4.3-.8.5-1 .1-.1.3-1.1.5-2.1s1-4 1.9-6.5c4.2-13 15.8-60 17.1-69.1.2-1.4.6-3.6.9-5 .6-2.7 1-4.8 3.1-16 1.7-9.4 2.5-14.5 3.1-19 .2-1.9.7-5.1 1-7 .2-1.9.7-5.8.9-8.5.3-2.8.7-6.8 1-9 2.5-20.9 2.5-65.7 0-90.5-2.2-21.7-8.6-45.4-16.8-62-2.3-4.7-4.4-8.7-4.7-9-.3-.3-1.8-2.3-3.4-4.5-2.7-3.6-12.3-13.4-15.7-16.1-2.5-1.9-12.3-6.3-16.9-7.7-4.5-1.3-16.4-1.9-21-1zm17.8 38.7c10.4 6.6 18.5 22.3 23.3 45.6 3.1 14.9 3.3 17.9 3.3 48 0 29-1 52.4-2.9 66.7-.3 2.4-.8 6.4-1.1 9-.3 2.7-.8 5.9-1 7.3-.3 1.4-.7 3.8-.8 5.5-.2 1.6-.6 4.3-.9 6-.3 1.6-.9 4.8-1.2 7-.4 2.2-.8 4.4-.9 5-.6 2.6-1.6 7.3-2.1 10-.3 1.6-.8 4.1-1.1 5.5-.3 1.4-.7 3.4-.8 4.5-.2 1.1-.6 3.1-1 4.5-.5 2.1-5.9 24.1-7 29-.2.8-1.2 4.4-2.1 8-.9 3.6-1.9 7.2-2 8-.2.8-.4 1.5-.5 1.5-.1 0-.3.7-.5 1.5-.1.8-1 4.1-2 7.4-.9 3.2-1.8 6.4-1.9 7-.9 4.8-18 57.9-24.1 74.6-5 13.5-19.4 51-21.5 55.5-.5 1.1-3.6 9.2-7 18s-6.8 17.4-7.6 19.2c-.8 1.7-1.4 3.6-1.4 4.2 0 .6-.4 1.1-1 1.1-.5 0-1-.5-1-1 0-1.7 0-1.9-1.5-6-.8-2.2-1.4-4.3-1.4-4.5 0-.3-.5-3-1.1-6-.8-4.1-1-31.5-.7-100.8.3-52.4.7-99.5 1-104.7 1-19.8 2.4-41.1 3.3-51 .3-3 .7-8 .9-11 .7-8.2 1.4-14.9 2-20.5.3-2.8.8-7.3 1.1-10 .3-2.8.7-6.6.9-8.5.3-1.9.7-5.6 1-8.2.3-2.6.7-6.2 1-8 .3-1.8.7-4.9.9-6.8.7-5.1 3-17.9 4.1-23 .3-1.4.8-3.6 1.1-5 .2-1.4.6-3.4.9-4.5.2-1.1.4-2.2.4-2.5 0-.3.4-1.8 1-3.3.6-1.5 1.4-4.2 1.7-6 .7-4 .8-4.3 2.3-9.7.8-2.5 1.4-5 1.6-5.5.1-.6.5-1.7.8-2.5.3-.8 1.3-4 2.3-7 .9-3 2.9-8.3 4.5-11.8 1.5-3.4 2.8-6.5 2.8-6.7.1-.9 4.7-10 6.7-13.1 3.2-5.1 7-9.2 11.5-12.3 3.8-2.7 5.1-3 9.2-2.6 2.6.3 6.4 1.6 8.5 2.9zM1.7 105.8c-1.6.3-1.7 23-1.7 339.8V785l61.3.1c89.8.1 81.9.3 99.2-3.1 8.3-1.7 8.7-1.8 16.8-4.4 13.9-4.5 24.7-10.3 42.1-22.6 5.3-3.8 19-19 24.6-27.3 3.3-5.1 6.5-9.7 7-10.4.6-.7 1-1.9 1-2.8 0-.8.4-1.5.8-1.5.5 0 1.7-1.9 2.7-4.3 1-2.3 3.1-6.9 4.6-10.3 2.6-6 8.2-23.1 9.3-28.9.4-1.7.9-4.1 1.1-5.5.9-4.7 1.4-7.5 2-11.5.3-2.2.8-5.1 1-6.5.2-1.4.7-5 1-8 .3-3 .8-7.3 1-9.5.8-6.7 1.9-37.2 1.9-52-.1-12.3-.5-20.8-1.8-33.5-1.7-16.6-7.4-39.7-12.2-49.1-.7-1.5-1-2.9-.7-3.3.4-.3.1-.6-.5-.6-.7 0-1.2-.4-1.2-.9 0-2.7-13.5-28-18-33.5-9.3-11.6-22.3-24.5-24.8-24.6-1.3-.1-7.7-6-6.4-6 1.6 0 26.2-24.7 26.2-26.3 0-.3 1.4-2.1 3-3.9 4.8-5.2 11.7-15.9 16.5-25.7 5-10.2 11.3-29.6 12.2-38 1.3-11.4.5-65.7-1.2-79.1-1.7-14.5-2.9-21.2-5.5-32.5-.6-2.8-1.4-6.1-1.6-7.4-.3-1.4-.7-2.8-1-3.3-.3-.4-.7-1.8-.9-3-1.4-7.4-14.6-36.8-17.3-38.8-.5-.3-1.9-2.1-3.2-4-3.7-5.3-5-6.8-11.5-13.5-6.3-6.5-18.7-16.5-20.5-16.5-.5 0-1-.4-1-.8 0-1.2-21-11.5-28.5-14.2-3.3-1.1-9.8-3-14.5-4.1-9.2-2.2-9.8-2.4-18-3.4-3-.4-5.8-.9-6.3-1.2-.4-.2-3.1-.6-6-.9-2.8-.2-6.5-.6-8.2-.9-8.6-1.2-29.7-1.7-73.1-1.9-26.4 0-48.8 0-49.7.2zM130 210c3.6 1.2 8.5 3.3 10.9 4.7 5.5 3.2 15.7 13.3 19.9 19.7 2.6 4.1 6.8 13.3 7.6 17.1.2.5.8 2.8 1.4 5 .6 2.2 1.3 5.7 1.6 7.9.4 2.1.8 4.1 1.1 4.5.3.7 1.9 20.1 1.7 22.6 0 .5-.3 6.8-.6 14-.3 7.1-.7 14.6-1 16.5-1 6.5-5.1 21.5-6.1 22.2-.5.4-.7.8-.3.8 1.2 0-2.3 7.3-6.7 14-7.6 11.5-18.2 20.2-29.4 24.2-6.6 2.4-30.1 3.5-30.1 1.5-.1-1.6-.1-176.1 0-176.8 0-.3 5.3-.4 11.8-.3 9 .1 13.2.7 18.2 2.4zm5.1 271.8c4 1.9 8.8 5.4 12.3 8.9 5.4 5.4 11.6 13.3 11.6 14.8 0 .4.9 2 2.1 3.6 1.1 1.6 1.7 2.9 1.3 2.9-.3 0-.1.6.5 1.4 1.3 1.5 5.9 16.3 6.7 21.6.3 1.9.7 3.7.9 4 .2.3.6 2.4.9 4.6.4 2.2.9 5.1 1.2 6.4.4 1.9 1.6 27.8 1.6 33.5-.1 8.7-1.4 27.3-2.2 31.5-.6 3-1.3 6.8-1.6 8.5-3.7 21.2-11.5 37.1-24.4 49.3-3.7 3.5-13 9.6-13 8.6 0-.4-.6-.2-1.2.3-.7.6-2.6 1.4-4.3 1.8-4.4 1.1-26.4 1.4-27.1.3-.4-.6-.8-151.2-.4-199.7v-6.3l14.3.4c13.4.4 14.6.6 20.8 3.6zM620 105.8c-.7.3-1 114.5-1 339.7v339.3l5.2.4c8.4.5 140 .1 143.3-.5 8-1.4 10.5-1.9 16.5-3.3 7.5-1.8 22.9-7.2 24.8-8.7.6-.5 1.2-.6 1.2-.1s.4.4.8-.1c.4-.6 4.2-2.8 8.5-5 4.2-2.2 7.7-4.3 7.7-4.7 0-.5.5-.8 1.1-.8.6 0 2.7-1.2 4.7-2.7 14.6-11 27.6-25.9 37.5-42.8 2.5-4.4 7.7-15.4 7.7-16.4 0-.5.4-1.1 1-1.3.5-.2 1.1-1.2 1.3-2.3.2-1.1 1-3.4 1.6-5 4.1-9.7 8.8-30.1 10.6-46 .3-2.2.7-5.4 1-7 1.4-8.1 1.9-21.4 2-46.5 0-27.7-.6-37.1-3.1-50.5-.3-1.7-.8-4.4-1-6-1.4-8.5-4.7-21.5-8-31.1-2.4-7.1-16.4-37.2-18.5-39.8-.5-.6-2.5-3.5-4.5-6.4-6.5-9.9-14.8-18.5-24.9-26.1-3.8-3-7.2-5.5-7.4-5.7-.2-.2 5.3-5.9 12.2-12.8 6.9-6.9 15.5-16.5 19.1-21.3 5.7-7.7 15.8-25.9 19.3-34.8 2.5-6.6 6.4-21.5 6.8-26.5.1-1.4.5-4.4.9-6.6.4-2.3.9-6.3 1.3-9 .8-6.7.8-59.9 0-64.9-.4-2.2-.9-6-1.2-8.5-.3-2.5-.8-5.6-1-7-.5-2.5-.7-3.6-2.6-12-.5-2.5-1.2-5.9-1.5-7.5-1.3-6.6-8.5-26.7-12.3-34.5-7.8-15.5-22.1-33.2-33.6-41.6-2.2-1.6-4.2-3.1-4.5-3.4-1.2-1.4-14.1-8.9-20-11.7-9.7-4.6-12.8-5.9-20.5-8.1-6.8-2.1-9.3-2.7-14.5-3.6-1.4-.3-3.6-.7-5-1-4.6-1-23.4-3.8-28.5-4.1-18.7-1.5-29.3-1.7-72.8-1.9-26.8 0-49.2 0-49.7.2zm123.5 102.7c2.2.4 7.2 2 11.2 3.7 10.5 4.4 21.7 15.6 27.7 27.8 2.2 4.4 6.1 16.3 7.2 21.5.4 2.2.8 4.4.9 5 1.5 6.3 1.8 10.7 2.1 27.5.2 13.4-.2 22-1.1 27.5-1.9 10.8-2.5 13.7-3.1 14.7-.3.5-.8 2.3-1.1 3.9-.6 4.1-5.6 15-9.3 20.4-8.1 11.8-20.6 20.8-33.5 24.2-1.1.3-7.3.6-13.7.8l-11.8.3V207.4l10.3.2c5.6.1 12 .5 14.2.9zm-8.9 271.8c.3.3 1.8.1 3.4-.3 1.6-.4 3.1-.5 3.4-.2.4.3 1.4.6 2.4.7 4.2.4 8.9 1.9 11.1 3.6 1.3 1 2.6 1.7 3 1.5 1.1-.7 12.5 10.4 16.7 16.4 5.8 8.1 11 20.1 12.9 29.9.2.9.4 1.7.5 1.8.3.4.5 1.1 1.5 6.8.4 2.7 1 5.7 1.1 6.5 1.4 6.2 1.7 13.5 1.8 34.5.1 24.5-.3 29.3-3.4 44-2.9 13.4-5 19.9-9.4 28.4-3.9 7.6-5.8 10.1-13.8 18-6 5.9-10.4 8.5-19.3 11.6-1.1.4-7.7.9-14.7 1l-12.8.4V479.5l7.5.1c4.2.1 7.8.4 8.1.7z"/></svg>