<svg xmlns="http://www.w3.org/2000/svg" viewBox="0 0 783.28 145.36"><path d="M0 116.63V1.26h14.91C25 1.26 32.81 3.14 38 8s7.84 12.4 7.84 23.86c0 5.49-.47 9.57-2.19 13.34s-4.4 6.91-8.32 10.52c4.24 2.35 7.38 6.75 9.89 14.12A44.09 44.09 0 0 1 47.09 84c0 8.63-1.57 16.33-5.49 22.29s-10.68 9.89-20.72 10.36zm17-67.81c1.42 0 4.71.16 7.54-1.73s5-5.65 5-13.65-2.2-11.77-5-13.66-6.17-1.72-7.54-1.72zm0 51c1.42 0 4.71.31 7.54-1.73s5-6.59 5-16-2.2-14-5-16-6.17-1.73-7.54-1.73zM85.06 116.63L76.27 68h-4.55v48.66H54.77V1.26h16.95c20.28 0 28.88 11.46 28.88 33.28 0 11.46-3 21.82-9.42 26.21L102 116.63zM71.72 52.27c2.35 0 5.49-.31 8-2.51s4.56-6.43 4.56-14.59-2-12.56-4.56-14.76-5.65-2.35-8-2.35zM153.34 92.93a31.6 31.6 0 0 1-2.82 12.56 21.6 21.6 0 0 1-6.75 8.47c-3.14 2.51-7.38 3.93-13 3.93s-10.05-1.42-13.19-3.93a21.07 21.07 0 0 1-6.59-8.47 31.44 31.44 0 0 1-2.83-12.56V25A31.29 31.29 0 0 1 111 12.56a21.52 21.52 0 0 1 6.59-8.63c3.1-2.36 7.5-3.93 13.15-3.93s9.89 1.57 13 3.93a22.05 22.05 0 0 1 6.75 8.63A31.46 31.46 0 0 1 153.34 25zm-17-68c0-3.14-.63-5.33-2.2-7.22a4.89 4.89 0 0 0-3.45-1.25c-3 0-4.4 2.19-5 4.23a12.08 12.08 0 0 0-.62 4.24v68c0 3.3.78 5.49 2.35 7.22a4.54 4.54 0 0 0 3.3 1.26c3 0 4.39-1.89 5-4.24a11 11 0 0 0 .63-4.24zM187 116.63h-13.17L158.29 1.26H174l6.75 60 .32 3.77h1.25l.47-3.77 7.22-60h12.25l7.22 60 .47 3.77h1.25l.32-3.77 6.75-60h15.69L218.4 116.63h-13.18L197.37 62l-.94-6.75h-.63l-.94 6.75zM268.08 32.18c0-3.76-.15-8-1.25-11.3-1.1-3.14-2.83-5.34-5.5-5.34-4.39.16-5.8 4.71-5.8 11.46 0 3.93 1.72 8 4.24 12.4s5.8 9 9.1 13.82A176.51 176.51 0 0 1 279.7 70.8c3 5.8 5 11.77 5 18 0 7.69-1.25 14.91-4.86 20.25s-9.42 8.79-18.68 8.79c-10.83 0-17-4.08-20.41-10.36s-4.24-14.6-4.24-23.23l16.64-1.57c0 4.86.16 9.73 1.42 13.34 1.09 3.77 3 6.28 6.59 6.28 5 0 6.9-5.34 6.9-12.72 0-3.76-1.88-8.16-4.39-12.71-1.41-2.2-2.83-4.55-4.4-6.91-3.29-4.71-6.9-10-10.67-15.85a65.78 65.78 0 0 1-8.32-17.9 30.85 30.85 0 0 1-1.39-9.21c0-6.28 1.41-13 5-18.21A20.6 20.6 0 0 1 261 0c10.2-.15 16.17 4.09 19.47 10.21 3.29 6.28 4.23 14 4.23 20.4zM575 116.63V1.26h14.91C600 1.26 607.81 3.14 613 8s7.84 12.4 7.84 23.86c0 5.49-.47 9.57-2.19 13.34s-4.4 6.91-8.32 10.52c4.24 2.35 7.38 6.75 9.89 14.12A44.13 44.13 0 0 1 622.09 84c0 8.64-1.57 16.33-5.49 22.29s-10.68 9.89-20.72 10.36zm17-67.81c1.42 0 4.71.16 7.54-1.72s5-5.66 5-13.66-2.2-11.77-5-13.66-6.12-1.72-7.54-1.72zm0 51c1.42 0 4.71.31 7.54-1.73s5-6.59 5-16-2.2-14-5-16-6.12-1.73-7.54-1.73zM660.06 116.63L651.27 68h-4.55v48.66h-17V1.26h17c20.25 0 28.88 11.46 28.88 33.28 0 11.46-3 21.82-9.42 26.21L677 116.63zm-13.34-64.36c2.35 0 5.49-.31 8-2.51s4.56-6.43 4.56-14.59-2-12.56-4.56-14.76-5.65-2.35-8-2.35zM728.34 92.93a31.6 31.6 0 0 1-2.82 12.56 21.6 21.6 0 0 1-6.75 8.47c-3.14 2.51-7.38 3.93-13 3.93s-10-1.42-13.19-3.93a21.07 21.07 0 0 1-6.59-8.47 31.44 31.44 0 0 1-2.83-12.56V25A31.29 31.29 0 0 1 686 12.56a21.52 21.52 0 0 1 6.59-8.63c3.1-2.36 7.5-3.93 13.15-3.93s9.89 1.57 13 3.93a22.05 22.05 0 0 1 6.75 8.63A31.46 31.46 0 0 1 728.34 25zm-17-68c0-3.14-.63-5.33-2.2-7.22a4.89 4.89 0 0 0-3.45-1.25c-3 0-4.4 2.19-5 4.23a12.08 12.08 0 0 0-.62 4.24v68c0 3.3.78 5.49 2.35 7.22a4.54 4.54 0 0 0 3.3 1.26c3 0 4.39-1.89 5-4.24a11 11 0 0 0 .63-4.24zM766.64 32.18c0-3.76-.16-8-1.25-11.3-1.1-3.14-2.83-5.34-5.5-5.34-4.39.16-5.81 4.71-5.81 11.46 0 3.93 1.73 8 4.24 12.4s5.81 9 9.11 13.82a178.4 178.4 0 0 1 10.83 17.58c3 5.8 5 11.77 5 18 0 7.69-1.26 14.91-4.87 20.25s-9.41 8.79-18.67 8.79c-10.84 0-17-4.08-20.41-10.36s-4.24-14.6-4.24-23.23l16.64-1.57c0 4.86.16 9.73 1.41 13.34 1.1 3.77 3 6.28 6.6 6.28 5 0 6.9-5.34 6.9-12.72 0-3.76-1.88-8.16-4.39-12.71-1.42-2.2-2.83-4.55-4.4-6.91-3.3-4.71-6.91-10-10.67-15.85a65.48 65.48 0 0 1-8.32-17.9 30.85 30.85 0 0 1-1.39-9.21c0-6.28 1.41-13 5-18.21A20.59 20.59 0 0 1 759.58 0c10.2-.15 16.17 4.09 19.46 10.21 3.3 6.28 4.24 14 4.24 20.4z" fill="#dba2b0"/><path d="M365.4 89.62l-.9 1.7a47 47 0 0 1-4.46 6.62 27.85 27.85 0 0 1-3.34 3.52 18.28 18.28 0 0 1-3.89 2.64 9.51 9.51 0 0 1-4.32 1 13.25 13.25 0 0 1-6.12-1.28 16.33 16.33 0 0 1-4.11-2.89 21.25 21.25 0 0 1-2.71 4.45 20.37 20.37 0 0 1-3.55 3.52 16.68 16.68 0 0 1-4.14 2.33 12.44 12.44 0 0 1-4.49.83 10.92 10.92 0 0 1-7.24-2.5 19.33 19.33 0 0 1-5-6.72 42.27 42.27 0 0 1-3.1-9.78 116 116 0 0 1-1.7-11.69q-.6-6.12-.73-12.38t-.14-11.9q0-10.78.62-18.69a122.42 122.42 0 0 1 1.74-13.4 48 48 0 0 1 2.5-9 20.57 20.57 0 0 1 3-5.36 8.83 8.83 0 0 1 3.27-2.61 8.34 8.34 0 0 1 3.27-.7 7.25 7.25 0 0 1 4.56 1.53 12.17 12.17 0 0 1 3.34 4.28 25.07 25.07 0 0 1 2 6.65 48.23 48.23 0 0 1 .7 8.56 78.28 78.28 0 0 1-1.6 15.38 147.64 147.64 0 0 1-4.14 15.83q-2.55 7.91-5.67 15.52t-6.2 14.44a48 48 0 0 0 1.25 6.5 24.83 24.83 0 0 0 2.16 5.5 12.47 12.47 0 0 0 3.13 3.83 6.57 6.57 0 0 0 4.18 1.42 8 8 0 0 0 4.45-1.35 13.27 13.27 0 0 0 3.62-3.55 18 18 0 0 0 2.4-5 19 19 0 0 0 .87-5.7 21.28 21.28 0 0 0-.38-3.94 13.51 13.51 0 0 0-1.18-3.54 7.9 7.9 0 0 0-2-2.54 4.35 4.35 0 0 0-2.85-1 3.18 3.18 0 0 0-1.95.52 3.62 3.62 0 0 0-1 1.19 3.76 3.76 0 0 0-.42 1.28 8.35 8.35 0 0 0-.07.84 4.89 4.89 0 0 0 .42 2 4 4 0 0 0 1.6 1.74 2.64 2.64 0 0 1 1.23 2.28 2.37 2.37 0 0 1-.8 1.88 2.6 2.6 0 0 1-1.77.7 3.89 3.89 0 0 1-2.47-.84 7.35 7.35 0 0 1-1.85-2.12 11.59 11.59 0 0 1-1.18-2.75 9.84 9.84 0 0 1-.42-2.71 9.59 9.59 0 0 1 .7-3.72 8.8 8.8 0 0 1 1.91-2.93 8.71 8.71 0 0 1 2.78-1.88 8.47 8.47 0 0 1 3.31-.66 9.58 9.58 0 0 1 5.19 1.39 11.91 11.91 0 0 1 3.65 3.69 17.19 17.19 0 0 1 2.16 5.22 25.68 25.68 0 0 1 .69 5.92 27.39 27.39 0 0 1-.21 3.41 13.18 13.18 0 0 0 .91 1.46 8.2 8.2 0 0 0 1.67 1.74 10.69 10.69 0 0 0 2.5 1.46 8.57 8.57 0 0 0 3.41.63 5.93 5.93 0 0 0 3.45-1.29 20.26 20.26 0 0 0 3.41-3.2 36.86 36.86 0 0 0 3-4.11 39.51 39.51 0 0 0 2.3-4.07 10.51 10.51 0 0 0 .71-1.49c.13-.47 1.15 0 1.66 0a2.45 2.45 0 0 1 1.91.83 2.78 2.78 0 0 1 .73 1.88 3.17 3.17 0 0 1-.26 1.18zm-53.79-9q2.37-5.85 4.8-12.28t4.38-13.12A136.46 136.46 0 0 0 324 41.74a74.69 74.69 0 0 0 1.25-13.43q0-2.5-.24-5.25a30.28 30.28 0 0 0-.87-5 12.22 12.22 0 0 0-1.71-3.83 3.25 3.25 0 0 0-2.75-1.53 2.52 2.52 0 0 0-1.43.73 9 9 0 0 0-1.84 2.57 29.07 29.07 0 0 0-2 5.11 65.48 65.48 0 0 0-1.77 8.32q-.81 5-1.32 12.14t-.53 16.7c0 2.14 0 4.3.07 6.51s.11 4.3.18 6.3.15 3.82.24 5.49.24 3 .33 4.07z"/><path d="M369 101.24a10.82 10.82 0 0 0 3.76 3.23 11.8 11.8 0 0 0 5.63 1.22 11.93 11.93 0 0 0 6.2-1.64 20.33 20.33 0 0 0 5.08-4.27 34.33 34.33 0 0 0 4.1-5.92q1.81-3.27 3.28-6.54a6.79 6.79 0 0 1 1.31-2.06c.42-.25.54.53 1.05.53a2.42 2.42 0 0 1 1.91.83 2.69 2.69 0 0 1 .73 1.81 2 2 0 0 1-.05.57 2.69 2.69 0 0 1-.2.53q-4.8 10.58-10.48 15.93a18.76 18.76 0 0 1-12.83 5.5 16.19 16.19 0 0 1-13.44-6.37 19.58 19.58 0 0 1-3.2-6.37 25.2 25.2 0 0 1-1-7.09 23.3 23.3 0 0 1 .87-6.54 16.42 16.42 0 0 1 2.5-5.22 11.94 11.94 0 0 1 3.9-3.48 10.06 10.06 0 0 1 5-1.25 7.89 7.89 0 0 1 3.16.66 9 9 0 0 1 2.72 1.89 9.3 9.3 0 0 1 2 3 9.76 9.76 0 0 1 .76 4 14.66 14.66 0 0 1-1 5.36 18 18 0 0 1-2.68 4.66 22.91 22.91 0 0 1-4.07 4 30.26 30.26 0 0 1-5.01 3.03zm-2.09-4.53a16.65 16.65 0 0 0 3.93-2.29 16.23 16.23 0 0 0 3-3.06 14.39 14.39 0 0 0 1.95-3.52 10.55 10.55 0 0 0 .69-3.72 4.37 4.37 0 0 0-1-3.17 3.28 3.28 0 0 0-2.43-1.08 5 5 0 0 0-3.2 1 7.79 7.79 0 0 0-2.16 2.71 13.78 13.78 0 0 0-1.22 3.72 21.82 21.82 0 0 0-.38 4.08 15.6 15.6 0 0 0 .24 2.64c.17.98.37 1.86.6 2.69z"/><path d="M397.25 120.84v-7.25c0-4.38 0-9 .07-13.78s.06-9.61.1-14.44l.14-14.23c.04-4.66.12-9.08.21-13.26q.21-12 .84-21.36a113.05 113.05 0 0 1 2-15.87 27 27 0 0 1 3.8-9.84 7.22 7.22 0 0 1 6.09-3.38 7.6 7.6 0 0 1 4.94 1.64 12 12 0 0 1 3.27 4.38 24.75 24.75 0 0 1 1.81 6.44 51.86 51.86 0 0 1 .55 7.72A90.07 90.07 0 0 1 419.61 44a111.47 111.47 0 0 1-4 15.38A131.54 131.54 0 0 1 409.77 74q-3.39 7.1-7.21 14v24.35a53.32 53.32 0 0 0 9.36-5.29 57.32 57.32 0 0 0 7.52-6.3A46.26 46.26 0 0 0 425 94a48.51 48.51 0 0 0 4.16-6.8c.42-1 1.23-1 1.77-1.65s1.59.61 2.08 1.14a2.54 2.54 0 0 1 .73 1.77 2.66 2.66 0 0 1-.21 1 53.15 53.15 0 0 1-3.9 7.06 47.46 47.46 0 0 1-5.74 7.17 58 58 0 0 1-7.9 6.78 62.51 62.51 0 0 1-10.37 6zm5.45-43.61a117.74 117.74 0 0 0 5.3-11.31 112 112 0 0 0 4.14-12.28 108.53 108.53 0 0 0 2.71-13 90.81 90.81 0 0 0 1-13.29 52.94 52.94 0 0 0-.31-6 22.29 22.29 0 0 0-1-4.63 8.37 8.37 0 0 0-1.67-3 3.12 3.12 0 0 0-2.33-1.08 3 3 0 0 0-2.44 1.67 16.85 16.85 0 0 0-1.81 4.45 53.57 53.57 0 0 0-1.29 6.42c-.35 2.41-.63 4.93-.87 7.55s-.41 5.24-.55 7.86-.25 5.08-.32 7.38-.11 4.32-.14 6.09 0 3.08 0 4C403 59.88 403 61.53 403 63s-.06 2.86-.11 4.25-.08 2.88-.1 4.45-.09 3.4-.09 5.53z"/><path d="M402.49 112.3c0 4.39-.66 17.76-1.38 21.4a21.23 21.23 0 0 1-3.38 8.56 7.59 7.59 0 0 1-6.47 3.1 8.38 8.38 0 0 1-5.08-1.64c-2.87-2.11-5.29-7.61-3.06-14.52 1.88-5.84 6.56-10.27 11-12.72s8.37-4.18 8.37-4.18zm-13.6 18.19c-.43 1.73-2.83 9 2.37 9.65 1.52.18 2.7-1 3.52-3.1a33.71 33.71 0 0 0 1.81-8.14 61.6 61.6 0 0 0 .66-8.06c-3.02 1.76-7.11 4.68-8.36 9.65zM460.81 101.24a15.35 15.35 0 0 1-3.06-.28 20.3 20.3 0 0 1-2.51 3.86 16.29 16.29 0 0 1-3.37 3.1 16.26 16.26 0 0 1-9.43 2.85 15.16 15.16 0 0 1-6-1.15 14.39 14.39 0 0 1-4.73-3.2 14.14 14.14 0 0 1-3.13-4.94 19.26 19.26 0 0 1 .49-14.13 21.07 21.07 0 0 1 3.69-5.49 15.9 15.9 0 0 1 4.17-3.27 7.84 7.84 0 0 1 3.13-1.08 2.11 2.11 0 0 1 2.37 2.29 2.19 2.19 0 0 1-.73 1.78 10.59 10.59 0 0 1-1.85 1.15 13.28 13.28 0 0 0-2.36 1.56 12.52 12.52 0 0 0-2.34 2.54 14 14 0 0 0-1.77 3.62 14.8 14.8 0 0 0-.7 4.66 12.94 12.94 0 0 0 .7 4.28 9.77 9.77 0 0 0 2 3.41 9.33 9.33 0 0 0 3.13 2.23 9.94 9.94 0 0 0 4 .8 11.1 11.1 0 0 0 6.57-1.84 12.28 12.28 0 0 0 4-4.7 18.27 18.27 0 0 1-6.75-6.13 15.69 15.69 0 0 1-2.64-8.9 10.38 10.38 0 0 1 1.91-6.47 6.06 6.06 0 0 1 5.05-2.51 7.3 7.3 0 0 1 3.55.91 8.41 8.41 0 0 1 3 2.85 16.43 16.43 0 0 1 2 5 30.51 30.51 0 0 1 .76 7.31 21 21 0 0 1-.55 4.66 5.81 5.81 0 0 0 .83.07h.91a15 15 0 0 0 4.24-.56 11.17 11.17 0 0 0 3.41-1.67 11.88 11.88 0 0 0 2.83-2.85 29.52 29.52 0 0 0 2.37-4 2.13 2.13 0 0 1 .9-.8 3 3 0 0 1 1.4-.38 2.62 2.62 0 0 1 2.5 2.64 3.1 3.1 0 0 1-.28 1.22c-.18.44-.37.85-.55 1.22a29.32 29.32 0 0 1-2.75 4 16.84 16.84 0 0 1-3.69 3.34 18.25 18.25 0 0 1-4.77 2.26 18.05 18.05 0 0 1-5.95.74zm-11.9-17.54a11.57 11.57 0 0 0 .35 2.78 12.53 12.53 0 0 0 1.08 2.89 14.3 14.3 0 0 0 1.81 2.72 10.11 10.11 0 0 0 2.54 2.19 21.7 21.7 0 0 0 .2-2.85 27.83 27.83 0 0 0-.27-3.83 22.33 22.33 0 0 0-.81-3.59 8.55 8.55 0 0 0-1.28-2.64 2.25 2.25 0 0 0-1.81-1 1.93 1.93 0 0 0-1.11.63c-.47.4-.7 1.31-.7 2.7z"/><path d="M481.06 80.29c-.19 1.25-.42 2.43-.7 3.52s-.54 2-.8 2.85-.47 1.47-.66 2a12 12 0 0 1-.51 1.21c-.47 1.07-1.11 1.23-2.27 1.23a2.72 2.72 0 0 1-1.81-.73 2.34 2.34 0 0 1-.84-1.85 1.11 1.11 0 0 1 .14-.62c.09-.14.09-.34.28-.76a16.06 16.06 0 0 0 .84-2.17c.27-1 .62-2.48 1-4.52-.79 0-1.6 0-2.44-.07a7.38 7.38 0 0 1-2.33-.49 3.72 3.72 0 0 1-2.47-3.82 11 11 0 0 1 .66-3.2 21.5 21.5 0 0 1 1.78-4 16.65 16.65 0 0 1 2.5-3.38 4 4 0 0 1 2.79-1.42 3.28 3.28 0 0 1 2.61 1.18 8.43 8.43 0 0 1 1.56 2.89 19.63 19.63 0 0 1 .8 3.58 26.54 26.54 0 0 1 .25 3.27h4.52a9.23 9.23 0 0 1 6.05 1.74q2.08 1.74 2.09 5.71a27.86 27.86 0 0 1-.21 3.34c-.14 1.16-.3 2.35-.49 3.58s-.3 2.39-.4 3.64a30.7 30.7 0 0 0-.21 3.55 10.75 10.75 0 0 0 .69 4.14 7.59 7.59 0 0 0 1.74 2.6 5.8 5.8 0 0 0 2.23 1.36 7 7 0 0 0 2.16.39 9.37 9.37 0 0 0 5.64-2 26.94 26.94 0 0 0 4.87-4.7 45.36 45.36 0 0 0 4-5.81c1.18-2 2.17-3.83 2.95-5.36a15.83 15.83 0 0 0 .71-1.7c.18-.45 1.13.38 1.59.38a2.45 2.45 0 0 1 1.95.8 2.65 2.65 0 0 1 .7 1.77 2.85 2.85 0 0 1-.28 1.26q-1.61 2.85-3.72 6.43a46.58 46.58 0 0 1-4.84 6.72 28 28 0 0 1-6.09 5.29 13.55 13.55 0 0 1-7.41 2.15 12 12 0 0 1-4.73-.94 10.94 10.94 0 0 1-3.87-2.71 13 13 0 0 1-2.6-4.38 16.48 16.48 0 0 1-1-5.88 34.52 34.52 0 0 1 .7-6.93 33.45 33.45 0 0 0 .69-6.57 2.94 2.94 0 0 0-.59-2 3.6 3.6 0 0 0-2.61-.66h-2.12l-2.49.09zm-4.66-5.15v-1.29c0-.54-.07-1-.14-1.56a7.76 7.76 0 0 0-.28-1.32c-.11-.38-.24-.56-.38-.56s-.31.17-.52.52-.43.77-.66 1.25a15.1 15.1 0 0 0-.63 1.57c-.18.56-.32 1-.42 1.39z"/><path d="M525.32 101.24a10.79 10.79 0 0 0 3.75 3.23 13 13 0 0 0 11.84-.42 20.51 20.51 0 0 0 5.09-4.27 34.9 34.9 0 0 0 4.1-5.92q1.81-3.27 3.27-6.54a2.54 2.54 0 0 1 1-1.15 2.64 2.64 0 0 1 1.39-.38 2.43 2.43 0 0 1 1.91.83 2.69 2.69 0 0 1 .73 1.81 2 2 0 0 1-.07.59 2.77 2.77 0 0 1-.21.53q-4.8 10.58-10.47 15.93a18.77 18.77 0 0 1-12.84 5.5 16.19 16.19 0 0 1-13.43-6.37 19.39 19.39 0 0 1-3.2-6.37 24.86 24.86 0 0 1-1-7.09 22.94 22.94 0 0 1 .88-6.54 16.21 16.21 0 0 1 2.5-5.22 11.94 11.94 0 0 1 3.9-3.48 10 10 0 0 1 5-1.25 7.91 7.91 0 0 1 3.17.66 9.19 9.19 0 0 1 2.82 1.87 9.47 9.47 0 0 1 2 3 9.76 9.76 0 0 1 .76 4 14.66 14.66 0 0 1-1 5.36 18.25 18.25 0 0 1-2.68 4.66 23.26 23.26 0 0 1-4.07 4 30.26 30.26 0 0 1-5.14 3.03zm-2.09-4.53a16.65 16.65 0 0 0 3.93-2.29 16.85 16.85 0 0 0 3-3.06 14.72 14.72 0 0 0 1.95-3.52 10.55 10.55 0 0 0 .69-3.72 4.42 4.42 0 0 0-1-3.17 3.3 3.3 0 0 0-2.44-1.08 5 5 0 0 0-3.2 1 7.91 7.91 0 0 0-2.16 2.76 14.12 14.12 0 0 0-1.21 3.72 21.82 21.82 0 0 0-.38 4.08 14.63 14.63 0 0 0 .24 2.64c.15.93.35 1.81.58 2.64z"/><rect x="384.55" y="82.8" width="34.12" height="5.08" rx="2.54"/></svg>