<svg xmlns="http://www.w3.org/2000/svg" viewBox="0 0 284.72 301.02"><path d="M78.79 146.88a49.96 49.96 0 0 1-2.72 4.71 44.66 44.66 0 0 1-2.64 3.62 28.49 28.49 0 0 1-3.34 3.51 18.27 18.27 0 0 1-3.9 2.65 9.61 9.61 0 0 1-4.32 1 13.25 13.25 0 0 1-6.12-1.29 16.08 16.08 0 0 1-4.1-2.89 21.79 21.79 0 0 1-2.72 4.46 20.31 20.31 0 0 1-3.55 3.51 16.07 16.07 0 0 1-4.14 2.33 12.41 12.41 0 0 1-4.49.84 10.88 10.88 0 0 1-7.23-2.51 19.28 19.28 0 0 1-5-6.71 43.08 43.08 0 0 1-3.1-9.78 116.43 116.43 0 0 1-1.7-11.69q-.58-6.12-.73-12.39t-.14-11.9q0-10.78.63-18.68a120 120 0 0 1 1.7-13.43 47.49 47.49 0 0 1 2.51-9 21.22 21.22 0 0 1 3-5.36A9 9 0 0 1 30 65.32a8.59 8.59 0 0 1 3.28-.69 7.24 7.24 0 0 1 4.55 1.53 11.86 11.86 0 0 1 3.34 4.28 25 25 0 0 1 2.06 6.64 49.31 49.31 0 0 1 .69 8.56 77.45 77.45 0 0 1-1.6 15.36 147 147 0 0 1-4.14 15.83q-2.53 7.91-5.67 15.52t-6.19 14.44a45.47 45.47 0 0 0 1.25 6.51 24.54 24.54 0 0 0 2.16 5.5 12.29 12.29 0 0 0 3.13 3.82 6.55 6.55 0 0 0 4.14 1.45 8 8 0 0 0 4.46-1.36 13 13 0 0 0 3.61-3.55 18.35 18.35 0 0 0 2.41-5 19 19 0 0 0 .86-5.71 20.28 20.28 0 0 0-.38-3.93 13.35 13.35 0 0 0-1.15-3.52 7.85 7.85 0 0 0-2-2.54 4.35 4.35 0 0 0-2.86-1A3.2 3.2 0 0 0 40 138a3.59 3.59 0 0 0-1 1.18 3.74 3.74 0 0 0-.42 1.29c0 .42-.07.7-.07.83a4.86 4.86 0 0 0 .42 1.95 4 4 0 0 0 1.6 1.74 2.68 2.68 0 0 1 1.19 2.3 2.38 2.38 0 0 1-.8 1.88 2.68 2.68 0 0 1-1.78.69 3.9 3.9 0 0 1-2.47-.83 7.46 7.46 0 0 1-1.84-2.12 11.8 11.8 0 0 1-1.19-2.75 9.86 9.86 0 0 1 .28-6.44 8.74 8.74 0 0 1 4.7-4.8 8.38 8.38 0 0 1 3.3-.66 9.45 9.45 0 0 1 5.19 1.39 11.8 11.8 0 0 1 3.65 3.69 16.94 16.94 0 0 1 2.16 5.22 25.67 25.67 0 0 1 .7 5.91 29.31 29.31 0 0 1-.21 3.41 11.51 11.51 0 0 0 .9 1.46 8 8 0 0 0 1.69 1.75 10.42 10.42 0 0 0 2.51 1.46 8.52 8.52 0 0 0 3.4.63 5.88 5.88 0 0 0 3.45-1.29 19.48 19.48 0 0 0 3.41-3.2 35.9 35.9 0 0 0 3-4.1 41.24 41.24 0 0 0 2.29-4.07 10 10 0 0 0 .71-1.49c.13-.47 1.15 0 1.66 0a2.4 2.4 0 0 1 1.91.84 2.77 2.77 0 0 1 .73 1.88 3.25 3.25 0 0 1-.28 1.13zm-53.8-9q2.37-5.84 4.8-12.28t4.39-13.11A135 135 0 0 0 37.38 99a74.8 74.8 0 0 0 1.25-13.44q0-2.5-.24-5.25a28.4 28.4 0 0 0-.87-5 12.34 12.34 0 0 0-1.7-3.83 3.25 3.25 0 0 0-2.75-1.53 2.47 2.47 0 0 0-1.43.73 8.63 8.63 0 0 0-1.85 2.57 30.14 30.14 0 0 0-1.94 5.12 67.26 67.26 0 0 0-1.78 8.31c-.53 3.37-1 7.41-1.32 12.15s-.52 10.29-.52 16.7q0 3.19.07 6.5t.17 6.3c.07 2 .15 3.83.24 5.5s.19 3.01.29 4.07z"/><path d="M82.4 158.5a10.83 10.83 0 0 0 3.76 3.24 13 13 0 0 0 11.84-.42 20.2 20.2 0 0 0 5.08-4.28 34.46 34.46 0 0 0 4.11-5.91q1.8-3.27 3.27-6.54a6.56 6.56 0 0 1 1.31-2.06c.42-.26.54.52 1 .52a2.43 2.43 0 0 1 1.92.84 2.74 2.74 0 0 1 .73 1.81 2 2 0 0 1-.07.59 3.54 3.54 0 0 1-.21.52q-4.8 10.58-10.47 15.94a18.81 18.81 0 0 1-12.84 5.5 16.77 16.77 0 0 1-7.94-1.78 16.55 16.55 0 0 1-5.49-4.59 19.19 19.19 0 0 1-3.2-6.37 24.92 24.92 0 0 1-1-7.1 23.41 23.41 0 0 1 .87-6.54 16.65 16.65 0 0 1 2.51-5.22 12.24 12.24 0 0 1 3.89-3.48 10.17 10.17 0 0 1 5-1.25 8.12 8.12 0 0 1 3.17.66 9.06 9.06 0 0 1 2.81 1.88 9.19 9.19 0 0 1 2 3 9.75 9.75 0 0 1 .77 4 14.62 14.62 0 0 1-1 5.36 18 18 0 0 1-2.68 4.67 22.87 22.87 0 0 1-4.07 4 29.25 29.25 0 0 1-5.07 3.01zm-2.08-4.5a16.89 16.89 0 0 0 3.93-2.3 16.17 16.17 0 0 0 3-3.06 13.83 13.83 0 0 0 2-3.51 10.36 10.36 0 0 0 .7-3.73 4.39 4.39 0 0 0-1-3.16 3.3 3.3 0 0 0-2.44-1.08 5 5 0 0 0-3.2 1 8 8 0 0 0-2.16 2.72 14.38 14.38 0 0 0-1.22 3.72 22.67 22.67 0 0 0-.38 4.07 15.42 15.42 0 0 0 .24 2.64c.1.95.29 1.83.53 2.69z"/><path d="M115.88 169.57a54.72 54.72 0 0 0 9.36-5.29 58.68 58.68 0 0 0 7.51-6.3 46.52 46.52 0 0 0 5.64-6.75 50.42 50.42 0 0 0 4.16-6.79c.42-1 1.22-1 1.77-1.66s1.58.61 2.07 1.14a2.58 2.58 0 0 1 .52 2.82 52.92 52.92 0 0 1-3.91 7.06 47.55 47.55 0 0 1-5.75 7.17 57.88 57.88 0 0 1-7.89 6.79 62.9 62.9 0 0 1-10.37 6 45.86 45.86 0 0 1 6.54 8.67 59.49 59.49 0 0 1 4.63 9.91 63.82 63.82 0 0 1 2.84 10.39 56.74 56.74 0 0 1 .94 10.05 41 41 0 0 1-.8 8.25 23.74 23.74 0 0 1-2.37 6.71 13.33 13.33 0 0 1-3.79 4.49 8.36 8.36 0 0 1-5.08 1.64 7.6 7.6 0 0 1-6.47-3.1 21.23 21.23 0 0 1-3.38-8.56 76.84 76.84 0 0 1-1.25-12.87q-.18-7.41-.17-16.11v-10.06-12.32q0-6.58.07-13.77 0-7.22.11-14.44t.14-14.23q.06-7 .21-13.26.19-12 .83-21.37a112.54 112.54 0 0 1 2-15.86q1.4-6.48 3.79-9.85a7.21 7.21 0 0 1 6.09-3.37 7.6 7.6 0 0 1 4.94 1.63 11.69 11.69 0 0 1 3.27 4.39 24 24 0 0 1 1.81 6.43 52 52 0 0 1 .56 7.73A90.85 90.85 0 0 1 133 101.3a112.18 112.18 0 0 1-4 15.38 130.75 130.75 0 0 1-5.88 14.54q-3.37 7.11-7.2 14v19.11c-.03 2-.04 3.75-.04 5.24zm0 8.56v15.1q0 6.47.07 12.8a105.61 105.61 0 0 0 .66 11.38 32.79 32.79 0 0 0 1.81 8.14c.81 2.06 2 3.1 3.51 3.1a4 4 0 0 0 3.41-1.88 14.43 14.43 0 0 0 2-4.46 29.88 29.88 0 0 0 1-5.25 42.65 42.65 0 0 0 .28-4.35 52.9 52.9 0 0 0-.8-8.9 54.39 54.39 0 0 0-2.43-9.23 60 60 0 0 0-4-8.8 40.51 40.51 0 0 0-5.51-7.65zm.21-43.64a118.65 118.65 0 0 0 5.25-11.3 112.22 112.22 0 0 0 4.14-12.29 108.37 108.37 0 0 0 2.71-12.9 91 91 0 0 0 1-13.29 52.67 52.67 0 0 0-.32-6 21.52 21.52 0 0 0-1-4.63 8.28 8.28 0 0 0-1.67-3 3.1 3.1 0 0 0-2.33-1.08 2.93 2.93 0 0 0-2.44 1.67 16.72 16.72 0 0 0-1.8 4.45 49.72 49.72 0 0 0-1.29 6.4c-.35 2.42-.64 4.93-.87 7.55s-.42 5.24-.56 7.87-.24 5.08-.31 7.37-.12 4.33-.14 6.09 0 3.09 0 4c0 1.85-.08 3.5-.1 4.94s-.06 2.85-.1 4.24-.09 2.88-.11 4.46-.06 3.32-.06 5.45z"/><path d="M174.19 158.5a14.64 14.64 0 0 1-3.06-.28 20.38 20.38 0 0 1-2.51 3.87 16.26 16.26 0 0 1-3.37 3.09 16.07 16.07 0 0 1-4.28 2.09 16.65 16.65 0 0 1-5.15.77 15.29 15.29 0 0 1-6-1.15 14.44 14.44 0 0 1-4.73-3.2 14.25 14.25 0 0 1-3.14-4.94 19.26 19.26 0 0 1 .49-14.13 21.64 21.64 0 0 1 3.69-5.5 16.12 16.12 0 0 1 4.17-3.27 7.87 7.87 0 0 1 3.14-1.08 2.32 2.32 0 0 1 1.77.63 2.35 2.35 0 0 1 .59 1.67 2.12 2.12 0 0 1-.73 1.77 9.92 9.92 0 0 1-1.84 1.15 13.43 13.43 0 0 0-2.37 1.57 12.23 12.23 0 0 0-2.33 2.54 14 14 0 0 0-1.78 3.62 14.76 14.76 0 0 0-.69 4.66 12.93 12.93 0 0 0 .69 4.28 9.77 9.77 0 0 0 2 3.41 9.57 9.57 0 0 0 3.13 2.23 10 10 0 0 0 4 .8 11.14 11.14 0 0 0 6.58-1.85 12.2 12.2 0 0 0 4-4.7 18.09 18.09 0 0 1-6.75-6.12 15.63 15.63 0 0 1-2.65-8.91 10.35 10.35 0 0 1 1.92-6.47 6 6 0 0 1 5-2.5 7.37 7.37 0 0 1 3.55.9 8.41 8.41 0 0 1 3 2.85 16.19 16.19 0 0 1 2 5 30.53 30.53 0 0 1 .77 7.31 20.92 20.92 0 0 1-.56 4.66 4.73 4.73 0 0 0 .83.07h.91a15 15 0 0 0 4.25-.55 11.28 11.28 0 0 0 3.41-1.67 11.9 11.9 0 0 0 2.74-2.86 29.37 29.37 0 0 0 2.34-4 2 2 0 0 1 .9-.8 2.82 2.82 0 0 1 1.39-.39 2.53 2.53 0 0 1 1.71.74 2.46 2.46 0 0 1 .8 1.91 3.29 3.29 0 0 1-.28 1.22c-.19.44-.37.84-.56 1.21a28 28 0 0 1-2.75 4 17.12 17.12 0 0 1-3.69 3.34 17.88 17.88 0 0 1-10.68 3zm-11.9-17.5a12.09 12.09 0 0 0 .35 2.78 12.71 12.71 0 0 0 1.08 2.89 14.72 14.72 0 0 0 1.81 2.71 10.29 10.29 0 0 0 2.54 2.19 19.94 19.94 0 0 0 .21-2.85 28 28 0 0 0-.28-3.83 22.22 22.22 0 0 0-.8-3.58 8.78 8.78 0 0 0-1.29-2.64 2.21 2.21 0 0 0-1.81-1 1.9 1.9 0 0 0-1.11.62 3.77 3.77 0 0 0-.7 2.71z"/><path d="M194.44 137.56c-.18 1.25-.42 2.42-.69 3.51s-.55 2-.8 2.85-.48 1.48-.66 2a10.11 10.11 0 0 1-.52 1.21c-.46 1.07-1.11 1.22-2.27 1.22a2.69 2.69 0 0 1-1.81-.73 2.32 2.32 0 0 1-.83-1.84 1.09 1.09 0 0 1 .14-.63c.09-.14.09-.34.27-.76a14.57 14.57 0 0 0 .84-2.16c.28-1 .63-2.48 1-4.52-.79 0-1.6 0-2.43-.07a7.61 7.61 0 0 1-2.33-.49 3.7 3.7 0 0 1-2.47-3.83 11 11 0 0 1 .66-3.2 21.75 21.75 0 0 1 1.77-4 16.61 16.61 0 0 1 2.51-3.37 4 4 0 0 1 2.78-1.43 3.29 3.29 0 0 1 2.61 1.18 8.71 8.71 0 0 1 1.57 2.89 20.62 20.62 0 0 1 .8 3.59 26.2 26.2 0 0 1 .24 3.27h4.52a9.24 9.24 0 0 1 6.06 1.74q2.09 1.74 2.08 5.7a30 30 0 0 1-.2 3.34c-.14 1.17-.31 2.36-.49 3.59s-.35 2.45-.49 3.65a30.84 30.84 0 0 0-.21 3.55 10.52 10.52 0 0 0 .7 4.14 7.45 7.45 0 0 0 1.74 2.61 6 6 0 0 0 2.22 1.36 7.24 7.24 0 0 0 2.16.38 9.34 9.34 0 0 0 5.64-1.95 26.6 26.6 0 0 0 4.87-4.7 44.67 44.67 0 0 0 4-5.81q1.77-3.06 3-5.35c.23-.42.55-1.31.71-1.71s1.12.38 1.59.38a2.44 2.44 0 0 1 1.94.8 2.64 2.64 0 0 1 .7 1.78 2.7 2.7 0 0 1-.28 1.25q-1.61 2.85-3.72 6.44a45.94 45.94 0 0 1-4.84 6.71 28 28 0 0 1-6.09 5.29 13.47 13.47 0 0 1-7.41 2.16 12 12 0 0 1-4.73-.94 11.12 11.12 0 0 1-3.86-2.71 13.29 13.29 0 0 1-2.61-4.39 16.71 16.71 0 0 1-1-5.88 35.09 35.09 0 0 1 .7-6.92 33.59 33.59 0 0 0 .7-6.58 2.86 2.86 0 0 0-.6-2 3.6 3.6 0 0 0-2.61-.66h-2.12c-.74-.03-1.57-.01-2.45.04zm-4.66-5.15v-1.29c0-.53-.08-1.05-.15-1.57a7.83 7.83 0 0 0-.27-1.32c-.12-.37-.25-.56-.39-.56s-.31.18-.52.53a13.91 13.91 0 0 0-.66 1.25 15.1 15.1 0 0 0-.63 1.57c-.18.55-.32 1-.41 1.39z"/><path d="M238.7 158.5a10.83 10.83 0 0 0 3.76 3.24 13 13 0 0 0 11.83-.42 20.38 20.38 0 0 0 5.08-4.28 33.87 33.87 0 0 0 4.1-5.91q1.81-3.27 3.28-6.54a2.42 2.42 0 0 1 1-1.15 2.58 2.58 0 0 1 1.39-.39 2.43 2.43 0 0 1 1.92.84 2.74 2.74 0 0 1 .73 1.81 2.45 2.45 0 0 1-.07.59 3.54 3.54 0 0 1-.21.52q-4.8 10.58-10.48 15.94a18.81 18.81 0 0 1-12.83 5.5 16.26 16.26 0 0 1-13.44-6.37 19.58 19.58 0 0 1-3.2-6.37 25.27 25.27 0 0 1-1-7.1 23.41 23.41 0 0 1 .87-6.54 16.43 16.43 0 0 1 2.51-5.22 12 12 0 0 1 3.89-3.48 10.17 10.17 0 0 1 5-1.25 8.07 8.07 0 0 1 3.16.66 9 9 0 0 1 2.82 1.88 9.19 9.19 0 0 1 2 3 9.75 9.75 0 0 1 .76 4 14.62 14.62 0 0 1-1 5.36 18 18 0 0 1-2.68 4.67 23.22 23.22 0 0 1-4.07 4 29.63 29.63 0 0 1-5.12 3.01zm-2.09-4.5a16.69 16.69 0 0 0 3.93-2.3 15.94 15.94 0 0 0 3-3.06 13.83 13.83 0 0 0 2-3.51 10.58 10.58 0 0 0 .7-3.73 4.35 4.35 0 0 0-1.05-3.16 3.26 3.26 0 0 0-2.43-1.08 5 5 0 0 0-3.2 1 7.83 7.83 0 0 0-2.16 2.72 14 14 0 0 0-1.22 3.72 21.8 21.8 0 0 0-.38 4.07 15.42 15.42 0 0 0 .24 2.64c.14.95.34 1.83.57 2.69z"/><path d="M0 116.63V1.26h14.91C25 1.26 32.81 3.14 38 8s7.84 12.4 7.84 23.86c0 5.49-.47 9.57-2.19 13.34s-4.4 6.91-8.32 10.52c4.24 2.35 7.38 6.75 9.89 14.12A44.09 44.09 0 0 1 47.09 84c0 8.63-1.57 16.33-5.49 22.29s-10.68 9.89-20.72 10.36zm17-67.81c1.42 0 4.71.16 7.54-1.73s5-5.65 5-13.65-2.2-11.77-5-13.66-6.17-1.72-7.54-1.72zm0 51c1.42 0 4.71.31 7.54-1.73s5-6.59 5-16-2.2-14-5-16-6.17-1.73-7.54-1.73zM85.06 116.63L76.27 68h-4.55v48.66H54.77V1.26h16.95c20.28 0 28.88 11.46 28.88 33.28 0 11.46-3 21.82-9.42 26.21L102 116.63zM71.72 52.27c2.35 0 5.49-.31 8-2.51s4.56-6.43 4.56-14.6-2-12.55-4.56-14.75-5.65-2.35-8-2.35zM153.34 92.93a31.6 31.6 0 0 1-2.82 12.56 21.6 21.6 0 0 1-6.75 8.47c-3.14 2.51-7.38 3.93-13 3.93s-10.05-1.42-13.19-3.93a21.07 21.07 0 0 1-6.59-8.47 31.44 31.44 0 0 1-2.83-12.56V25A31.29 31.29 0 0 1 111 12.56a21.52 21.52 0 0 1 6.59-8.63c3.1-2.36 7.5-3.93 13.15-3.93s9.89 1.57 13 3.93a22.05 22.05 0 0 1 6.75 8.63A31.46 31.46 0 0 1 153.34 25zm-17-68c0-3.14-.63-5.34-2.2-7.22a4.89 4.89 0 0 0-3.45-1.25c-3 0-4.4 2.19-5 4.23a12.08 12.08 0 0 0-.62 4.24v68c0 3.29.78 5.49 2.35 7.22a4.54 4.54 0 0 0 3.3 1.26c3 0 4.39-1.89 5-4.24a11 11 0 0 0 .63-4.24zM187 116.63h-13.17L158.29 1.26H174l6.75 60 .32 3.77h1.25l.47-3.77 7.22-60h12.25l7.22 60 .47 3.77h1.25l.32-3.77 6.75-60h15.69L218.4 116.63h-13.18L197.37 62l-.94-6.75h-.63l-.94 6.75zM268.08 32.18c0-3.76-.15-8-1.25-11.3-1.1-3.14-2.83-5.34-5.5-5.34-4.39.16-5.8 4.71-5.8 11.46 0 3.93 1.72 8 4.24 12.4s5.8 9 9.1 13.82A176.51 176.51 0 0 1 279.7 70.8c3 5.8 5 11.77 5 18 0 7.69-1.25 14.91-4.86 20.25s-9.42 8.79-18.68 8.79c-10.83 0-17-4.08-20.41-10.36s-4.24-14.6-4.24-23.23l16.64-1.57c0 4.86.16 9.73 1.42 13.34 1.09 3.77 3 6.28 6.59 6.28 5 0 6.9-5.34 6.9-12.72 0-3.76-1.88-8.16-4.39-12.71-1.41-2.2-2.83-4.55-4.4-6.91-3.29-4.71-6.9-10-10.67-15.85a65.78 65.78 0 0 1-8.32-17.9 30.85 30.85 0 0 1-1.39-9.21c0-6.28 1.41-13 5-18.21A20.6 20.6 0 0 1 261 0c10.2-.15 16.17 4.09 19.47 10.21 3.29 6.28 4.23 14 4.23 20.4zM0 299.76V184.39h14.91c10.05 0 17.9 1.89 23.08 6.75s7.84 12.4 7.84 23.86c0 5.49-.47 9.58-2.19 13.34s-4.4 6.91-8.32 10.52c4.24 2.35 7.38 6.75 9.89 14.13a44.06 44.06 0 0 1 1.88 14.12c0 8.64-1.57 16.33-5.49 22.29s-10.68 9.89-20.72 10.36zM17 232c1.42 0 4.71.16 7.54-1.72s5-5.65 5-13.66-2.2-11.77-5-13.66-6.12-1.72-7.54-1.72zm0 51c1.42 0 4.71.31 7.54-1.73s5-6.59 5-16-2.2-14-5-16-6.12-1.73-7.54-1.73zM85.06 299.76l-8.79-48.66h-4.55v48.66H54.77V184.39h16.95c20.25 0 28.88 11.46 28.88 33.28 0 11.46-3 21.82-9.42 26.21L102 299.76zm-13.34-64.35a11.77 11.77 0 0 0 8-2.52c2.52-2.19 4.56-6.43 4.56-14.59s-2-12.56-4.56-14.76-5.65-2.35-8-2.35zM153.34 276.06a31.6 31.6 0 0 1-2.82 12.56 21.6 21.6 0 0 1-6.75 8.47c-3.14 2.52-7.38 3.93-13 3.93s-10.05-1.41-13.19-3.93a21.07 21.07 0 0 1-6.59-8.47 31.44 31.44 0 0 1-2.83-12.56v-68a31.29 31.29 0 0 1 2.83-12.4 21.52 21.52 0 0 1 6.59-8.63c3.14-2.35 7.54-3.92 13.19-3.92a21.13 21.13 0 0 1 13 3.92 22.05 22.05 0 0 1 6.75 8.63 31.46 31.46 0 0 1 2.82 12.4zm-17-68c0-3.14-.63-5.33-2.2-7.22a4.89 4.89 0 0 0-3.45-1.25c-3 0-4.4 2.2-5 4.24a12 12 0 0 0-.62 4.23v68c0 3.3.78 5.49 2.35 7.22a4.5 4.5 0 0 0 3.3 1.26c3 0 4.39-1.89 5-4.24a11 11 0 0 0 .63-4.24zM191.64 215.31c0-3.76-.16-8-1.25-11.3-1.1-3.14-2.83-5.33-5.5-5.33-4.39.15-5.81 4.7-5.81 11.45 0 3.93 1.73 8 4.24 12.4s5.81 8.95 9.11 13.82a179.57 179.57 0 0 1 10.83 17.58c3 5.81 5 11.77 5 18.05 0 7.69-1.26 14.91-4.87 20.25S194 301 184.74 301c-10.84 0-17-4.08-20.41-10.36s-4.24-14.6-4.24-23.23l16.64-1.57c0 4.86.16 9.73 1.41 13.34 1.1 3.77 3 6.28 6.6 6.28 5 0 6.9-5.34 6.9-12.72 0-3.76-1.88-8.16-4.39-12.71-1.42-2.2-2.83-4.55-4.4-6.91-3.3-4.71-6.91-10-10.67-15.85a65.56 65.56 0 0 1-8.32-17.89 31 31 0 0 1-1.41-9.27c0-6.27 1.41-13 5-18.2a20.54 20.54 0 0 1 17.11-8.79c10.2-.16 16.17 4.08 19.46 10.2 3.3 6.28 4.24 14 4.24 20.4z" fill="#dba2b0"/><path d="M121.38 185.78a60 60 0 0 1 4 8.8 54.39 54.39 0 0 1 2.43 9.23c.07.38.09.74.15 1.12h5.3c-.1-.74-.16-1.46-.3-2.2a63.82 63.82 0 0 0-2.78-10.41 59.49 59.49 0 0 0-4.63-9.91c-.22-.39-.5-.73-.73-1.1h-6.36a40.93 40.93 0 0 1 2.92 4.47zM128.19 98a108.37 108.37 0 0 1-2.71 12.94 111 111 0 0 1-4 11.91h5.28c.8-2 1.57-4.06 2.27-6.13a112.18 112.18 0 0 0 4-15.38c.38-2.07.66-4.17.89-6.29h-5.37c-.14.95-.21 1.95-.36 2.95zM24.23 115.5q0-9.61.52-16.7c.1-1.32.2-2.58.31-3.79h-5.5c0 .24 0 .45-.06.69q-.63 7.89-.63 18.68v3.7h5.37c.01-.86-.01-1.73-.01-2.58z"/><rect x="97.93" y="140.07" width="34.12" height="5.08" rx="2.54"/></svg>